<?xml version="1.0" encoding="iso-8859-1"?>
<!-- Uploaded to: SVG Repo, www.svgrepo.com, Generator: SVG Repo Mixer Tools -->
<!DOCTYPE svg PUBLIC "-//W3C//DTD SVG 1.1//EN" "http://www.w3.org/Graphics/SVG/1.1/DTD/svg11.dtd">
<svg fill="#000000" height="800px" width="800px" version="1.1" id="Capa_1" xmlns="http://www.w3.org/2000/svg" xmlns:xlink="http://www.w3.org/1999/xlink" 
	 viewBox="0 0 228.407 228.407" xml:space="preserve">
<path d="M184.833,61.205c-10.192-29.553-38.173-49.75-69.857-49.75c-26.002,0-49.832,13.534-63.203,35.605
	C22.846,49.318,0,73.577,0,103.072c0,30.98,25.205,56.186,56.241,56.186h50.451l-0.002,57.693h15l0.002-57.693h57.526
	c27.122,0,49.188-22.065,49.188-49.187C228.407,84.857,209.337,64.014,184.833,61.205z M179.219,144.258h-57.526l0.001-40.795
	l19.548,19.548l10.607-10.607l-37.654-37.652l-37.677,37.676l10.606,10.607l19.57-19.569l-0.002,40.793H56.185
	c-22.71,0-41.185-18.476-41.185-41.186c0-22.645,18.372-41.08,40.995-41.184l4.762,0.002l2.111-3.996
	c10.245-19.393,30.212-31.439,52.108-31.439c26.727,0,50.147,18.027,56.953,43.84l1.512,5.588h5.779
	c18.851,0,34.188,15.337,34.188,34.188S198.07,144.258,179.219,144.258z"/>
</svg>