<?xml version="1.0" standalone="no"?>
<!DOCTYPE svg PUBLIC "-//W3C//DTD SVG 20010904//EN"
 "http://www.w3.org/TR/2001/REC-SVG-20010904/DTD/svg10.dtd">
<svg version="1.0" xmlns="http://www.w3.org/2000/svg"
 width="182.000000pt" height="65.000000pt" viewBox="0 0 182.000000 65.000000"
 preserveAspectRatio="xMidYMid meet">

<g transform="translate(0.000000,65.000000) scale(0.100000,-0.100000)"
fill="#000000" stroke="none">
<path d="M708 553 c6 -2 18 -2 25 0 6 3 1 5 -13 5 -14 0 -19 -2 -12 -5z"/>
<path d="M638 527 c-32 -27 -48 -57 -48 -91 0 -13 -6 -27 -12 -29 -8 -3 -6 -6
5 -6 13 -1 17 7 17 33 0 38 38 92 74 106 13 6 15 9 6 9 -8 1 -27 -9 -42 -22z"/>
<path d="M777 533 c37 -19 48 -40 32 -60 -7 -7 -9 -16 -5 -20 3 -3 6 -1 6 5 0
15 52 42 80 42 28 0 80 -52 80 -79 0 -13 6 -21 18 -21 10 0 13 3 6 8 -5 4 -16
22 -23 40 -17 40 -63 66 -103 58 -23 -5 -37 0 -60 19 -16 14 -37 25 -46 24
-10 0 -4 -7 15 -16z"/>
<path d="M515 375 c-32 -31 -34 -91 -4 -129 11 -14 24 -26 29 -26 5 0 -2 11
-15 25 -38 37 -35 95 6 129 17 14 25 26 19 26 -6 0 -22 -11 -35 -25z"/>
<path d="M1036 377 c16 -14 30 -39 34 -63 7 -37 8 -37 9 -7 1 31 -39 93 -60
93 -6 0 2 -10 17 -23z"/>
<path d="M702 340 c-35 -21 -72 -74 -72 -102 0 -14 -9 -18 -37 -19 l-38 -2 34
-6 c27 -5 36 -13 44 -36 19 -61 97 -117 157 -114 8 0 -7 7 -34 14 -70 19 -107
60 -113 122 -8 77 21 123 94 149 23 8 30 13 18 14 -11 0 -35 -9 -53 -20z"/>
<path d="M808 353 c7 -3 16 -2 19 1 4 3 -2 6 -13 5 -11 0 -14 -3 -6 -6z"/>
<path d="M867 329 c90 -58 78 -195 -22 -240 -22 -10 -34 -19 -27 -19 43 -1
106 59 117 110 6 25 12 30 36 30 37 0 84 24 93 46 4 10 -4 7 -25 -10 -19 -17
-43 -26 -64 -26 -29 0 -34 4 -40 30 -7 34 -65 100 -86 100 -8 0 0 -9 18 -21z"/>
<path d="M764 255 c-15 -12 -15 -14 -2 -9 14 5 17 -3 21 -48 l3 -53 2 54 c2
46 4 52 17 41 18 -15 20 1 3 18 -15 15 -20 15 -44 -3z"/>
</g>
</svg>
